<?xml version="1.0" encoding="utf-8"?>
<svg version="1.1" xmlns="http://www.w3.org/2000/svg" x="0px" y="0px" viewBox="0 0 500 500" style="enable-background:new 0 0 500 500;">
  <g id="OBJECTS" transform="matrix(2.218212, 0, 0, 2.218212, -631.876892, -550.986023)" style="">
    <g transform="matrix(1, 0, 0, 1, 29.636709, 0.956022)">
      <path style="fill:#D6F2F0;" d="M347.407,268.221c-15.535,16.61-17.771,15.855-31.068,18.877 c-17.92,4.069-40.391,25.67-37.283,43.791c3.107,18.12,19.418,42.281,22.524,67.197c3.107,24.915-3.106,41.525,13.204,52.852 c16.311,11.325,59.995,20.792,92.43,14.346c30.391-6.04,32.568-19.631,35.675-41.526c3.107-21.896-13.928-80.033-9.268-97.398 c4.66-17.366,9.32-47.567-4.66-58.893C414.98,256.141,362.94,251.611,347.407,268.221z"/>
      <g>
        <path style="fill:#FACCBB;" d="M324.351,392.423l11.325-22.273l16.987,19.254c0,0-19.253,28.691-28.69,26.426 C314.535,413.564,324.351,392.423,324.351,392.423z"/>
        <path style="fill:#A9515E;" d="M336.408,459.738c14.53,12.175,36.572,12.296,54.391,9.359c9.37-1.544,18.828-4.143,27.334-8.519 c-4.861-20.184-10.071-39.876-9.208-47.762c1.078-9.844,3.06-25.74,1.477-33.415c-1.65-7.991-3.004-22.527-8.611-26.661 c-5.609-4.132-27.482-3.951-35.131-2.389c-7.65,1.563-19.066,1.232-24.381,7.673c-3.397,4.115-3.43,11.816-7.002,23.214 c-2.838,9.051,2.482,22.34,3.377,29.699C339.357,416.724,337.163,440.486,336.408,459.738z"/>
        <g>
          <path style="fill:#5C4200;" d="M370.999,326.348c-8.661,9.301-18.926,12.185-23.416,11.226 c-4.492-0.961-8.073-2.032-11.774-6.817c-3.701-4.786-4.267-6.258-5.822-12.611c-1.2-4.921-0.472-13.495,2.571-21.533 c6.982-18.419,32.109-17.654,32.109-17.654C381.459,285.003,379.657,317.044,370.999,326.348z"/>
          <path style="fill:#FACCBB;" d="M337.068,305.397c-1.255,6.421-2.813,30.716,12.08,36.272 c10.497,3.918,22.797,0.972,29.344-7.034c6.548-8.003,9.407-33.271,5.444-38.398c-5.344-6.911-14.882-10.356-23.962-9.349 C343.657,288.704,338.315,298.977,337.068,305.397z"/>
          <g>
            <path style="fill:#77514F;" d="M366.179,314.946c-4.689-0.451-5.395,6.807-0.71,7.261 C370.157,322.661,370.858,315.398,366.179,314.946z"/>
            <path style="fill:#77514F;" d="M346.154,315.384c-4.402-0.428-5.07,6.404-0.663,6.828 C349.902,322.639,350.56,315.808,346.154,315.384z"/>
            <path style="fill:#FFFFFF;" d="M348.635,329.756l15.491-1.821c0,0,1.041,5.358-6.874,7.222 C349.548,336.966,348.635,329.756,348.635,329.756z"/>
            <path style="fill:#DC8C7A;" d="M349.57,321.501c0.542-1.22,2.342-2.654,1.708-4.121c-0.574-1.318,1.267-2.495,1.979-1.157 c0.915,1.714,0.524,3.201-0.346,4.847c-0.418,0.793-1.515,1.993-0.554,2.688c0.77,0.55,1.659,0.788,2.402,1.385 c0.985,0.78,0.195,2.655-1.047,2.526c-1.585-0.168-4.363-1.647-4.646-3.46C348.908,323.184,349.157,322.435,349.57,321.501z"/>
            <path style="fill:#5C4200;" d="M366.062,309.045c1.4,0.192,2.793,0.804,4.04,1.445c1.318,0.665,0.162,2.567-1.152,1.951 c-0.84-0.393-1.722-0.686-2.623-0.915c-0.522-0.13-1.113-0.236-1.651-0.162c-0.498,0.078-0.838,0.398-1.373,0.438 c-0.78,0.048-1.162-0.736-1.06-1.387C362.5,308.768,364.854,308.872,366.062,309.045z"/>
            <path style="fill:#5C4200;" d="M342.262,310.6c0.941-0.28,1.986-0.267,2.958-0.223c1.445,0.063,1.445,2.181,0,2.242 c-0.598,0.03-1.182,0.082-1.763,0.215c-0.617,0.143-1.058,0.515-1.592,0.794c-0.581,0.299-1.243,0.039-1.441-0.585 C340.015,311.776,341.216,310.911,342.262,310.6z"/>
          </g>
          <g>
            <path style="fill:#D4641F;" d="M342.777,309.093c-4.584,0-8.298,3.903-8.298,8.724c0,4.815,3.714,8.72,8.298,8.72 c4.583,0,8.302-3.904,8.302-8.72C351.079,312.996,347.36,309.093,342.777,309.093z M342.777,324.764 c-3.651,0-6.608-3.107-6.608-6.947c0-3.84,2.957-6.948,6.608-6.948s6.612,3.108,6.612,6.948 C349.39,321.656,346.429,324.764,342.777,324.764z"/>
            <path style="fill:#D4641F;" d="M365.005,309.374c-5.049,0-9.144,3.904-9.144,8.72c0,4.819,4.095,8.723,9.144,8.723 c5.052,0,9.145-3.903,9.145-8.723C374.15,313.278,370.057,309.374,365.005,309.374z M365.005,325.044 c-4.021,0-7.284-3.107-7.284-6.95c0-3.837,3.264-6.946,7.284-6.946c4.023,0,7.285,3.109,7.285,6.946 C372.29,321.936,369.028,325.044,365.005,325.044z"/>
            <path style="fill:#D4641F;" d="M354.146,312.431c-1.395-0.162-4.137-0.093-4.803,1.262c-0.336,0.685-0.093,1.323,0.554,1.621 c-0.017,0.012-0.035,0.017-0.051,0.022c0.472,0.229,0.995,0.272,1.52,0.15c0.822-0.195,1.469-0.293,2.342-0.247 c1.403,0.071,2.851,0.126,4.176-0.354c0.156-0.054,0.284-0.182,0.227-0.343C357.602,313.168,355.674,312.609,354.146,312.431z"/>
            <path style="fill:#D4641F;" d="M382.285,309.986c-1.589,0.442-3.175,0.726-4.743,1.246c-1.703,0.564-3.313,1.672-4.901,2.492 c-1.142,0.587-0.222,2.582,0.966,2.097c1.695-0.695,3.411-1.352,5.077-2.112c1.487-0.673,2.682-1.893,4.026-2.801 C383.075,310.662,382.71,309.865,382.285,309.986z"/>
          </g>
          <path style="fill:#5C4200;" d="M392.166,300.046c-1.282-9.944-4.551-14.515-14.521-20.858 c-9.97-6.342-37.758,5.415-36.707,12.24c0.681,4.409,6.299,10.07,10.516,13.817c4.037,3.591,10.529,2.035,17.534,4.278 c8.024,2.57,13.107,6.535,12.594,9.445c-0.962,5.45-3.531,13.983-1.634,15.667c1.408,1.25,5.092-4.123,7.032-5.579 c1.942-1.454,3.758-5.343,5.093-7.516C394.64,317.37,393.276,308.651,392.166,300.046z"/>
          <path style="fill:#FACCBB;" d="M382.771,310.235c-1.623,0.38-2.487,1.668-3.271,3.026c-0.57,0.987-0.886,1.94-1.098,2.926 c-0.525,0.575-0.935,1.202-1.102,2c-0.391,1.894,0.17,3.967,1.928,4.996c3.692,2.163,7.303-2.179,8.354-5.301 C388.629,314.774,386.966,309.251,382.771,310.235z"/>
          <path style="fill:#5C4200;" d="M403.132,284.156c0.28-4.773-1.647-9.836-4.855-13.039c-1.379-3.092-4.215-6.91-9.781-6.671 c-6.71,0.292-9.589,7.612-10.691,11.788c-1.509,2.329-2.004,4.171-2.004,4.171s4.289,11.79,11.79,13.933 c1.171,0.335,2.338,0.522,3.481,0.594c1.794,1.535,3.873,3.813,3.873,6.133c0,0.417,0.338,0.755,0.755,0.755 s0.755-0.338,0.755-0.755c0-2.319-1.541-4.486-3.193-6.152c0.466-0.043,0.922-0.113,1.37-0.204 c2.004,0.821,4.037,1.953,4.514,3.224c0.113,0.304,0.401,0.491,0.707,0.491c0.089,0,0.178-0.016,0.266-0.048 c0.391-0.147,0.588-0.582,0.441-0.973c-0.516-1.374-2.06-2.496-3.745-3.359C400.306,292.561,402.829,289.3,403.132,284.156z M387.056,268.615c-2.742,1.131-4.852,2.649-6.462,4.22c1.458-3.315,3.929-6.704,7.966-6.88c3.12-0.133,5.232,1.215,6.653,2.914 C392.811,267.657,390.02,267.396,387.056,268.615z"/>
          <path style="fill:none;stroke:#796515;stroke-width:1.5101;stroke-miterlimit:10;" d="M348.889,292.004 c0,0,4.529,6.796,10.192,8.683c7.243,2.415,15.101,6.041,15.101,6.041"/>
          <path style="fill:none;stroke:#796515;stroke-width:1.5101;stroke-miterlimit:10;" d="M347.756,287.475 c0,0,10.571,2.265,18.498,6.417c7.928,4.153,15.479,8.683,15.101,12.081"/>
          <path style="fill:none;stroke:#796515;stroke-width:1.5101;stroke-miterlimit:10;" d="M360.214,286.342 c0,0,19.63,1.133,24.539,15.855"/>
          <path style="fill:none;stroke:#796515;stroke-width:1.5101;stroke-miterlimit:10;" d="M382.487,279.924 c0,0,2.643-5.663,8.306-6.796c5.662-1.132,7.928,3.397,7.928,3.397"/>
          <path style="fill:none;stroke:#796515;stroke-width:1.5101;stroke-miterlimit:10;" d="M386.262,282.189 c0,0,6.796-4.529,10.193-0.754"/>
          <path style="fill:none;stroke:#796515;stroke-width:1.5101;stroke-miterlimit:10;" d="M390.415,289.362 c0,0,3.397,3.02,7.55,0.377"/>
          <path style="fill:none;stroke:#796515;stroke-width:1.5101;stroke-miterlimit:10;" d="M340.583,291.25 c0,0-9.438,7.928-6.796,21.518"/>
        </g>
        <path style="fill:#FACCBB;" d="M356.943,339.571c0,0,0.505,13.592,0,18.624c-0.503,5.033,3.007,6.691,8.054,7.048 c10.694,0.754,15.98-13.592,15.98-13.592l-7.424-18.623L356.943,339.571z"/>
        <path style="fill:none;stroke:#DC8C7A;stroke-width:1.6171;stroke-miterlimit:10;" d="M358.704,344.102 c4.906,0,10.57-1.133,13.969-4.908"/>
        <path style="fill:#A9515E;" d="M345.867,355.805c0,0-5.661,0.755-9.059,8.306c-3.398,7.549-6.794,17.365-9.438,21.14 c-2.643,3.775,5.663,7.173,7.55,10.57c1.888,3.398,5.286,12.836,13.969,3.02c8.683-9.815,4.529-30.201,4.529-30.201 L345.867,355.805z"/>
        <g>
          <path style="fill:#FACCBB;" d="M329.353,414.754c-7.008,3.578-13.441-0.737-16.759-7.371 c-2.795-5.593-14.982-52.418-14.822-55.116c0.158-2.701,14.09-1.302,14.09-1.302s18.838,35.277,21.354,41.502 C335.729,398.692,336.36,411.177,329.353,414.754z"/>
          <g>
            <path style="fill:#FACCBB;" d="M285.38,326.05c-0.748-4.17,1.939-3.691,2.986-1.794c0.634,1.151,2.637,8.775,3.521,9.818 c-1.067-2.972-2.569-14.188-1.974-17.376c0.241-1.323,2.286-1.756,3.099-0.729c1.554,1.974,3.741,13.095,4.759,15.57 c-0.465-4.092-2.258-14.108-1.869-18.285c0.195-2.068,2.943-3.36,4.088-1.561c1.854,2.928,3.83,17.776,4.351,19.896 c0.145-1.751-1.958-19.723,1.56-19.925c3.353-0.2,3.479,5.422,4.48,11.562c0.383,2.34,1.456,13.038,1.456,13.038 s1.097-5.439,2.807-7.646c1.71-2.205,5.278-2.575,5.583-0.515c0.178,1.163-1.985,7.797-2.479,8.803 c-0.888,1.817-1.429,5.311-2.732,10.369c-1.302,5.063-4.496,9.011-9.421,9.49c-5.107,0.499-10.409-0.385-13.305-5.235 c-2.894-4.851-3.036-10.707-4.191-13.263C286.607,334.971,286.127,330.218,285.38,326.05z"/>
            <path style="fill:none;stroke:#DC8C7A;stroke-width:1.2903;stroke-miterlimit:10;" d="M310.145,337.071 c0,0-3.684,2.945-3.826,5.841c-0.109,2.189,0.671,6.069,0.671,6.069"/>
            <path style="fill:none;stroke:#DC8C7A;stroke-width:1.2903;stroke-miterlimit:10;" d="M306.8,336.153 c0,0-10.544-1.283-14.068,2.288"/>
          </g>
        </g>
        <path style="fill:#FACCBB;" d="M418.261,392.289c0,0,5.049,26.814,5.332,34.021c0.263,6.685,2.3,16.799,2.38,21.343 c0.08,4.546,0.136,9.468-0.89,13.563c-1.025,4.094-14.686,4.709-16.872,3.43c-2.186-1.277-3.986-19.935-3.492-27.468 c0.495-7.536-3.355-20.593-4.11-26.633l-1.888-15.102c0,0,7.982-0.855,11.482-1.414 C413.702,393.471,418.261,392.289,418.261,392.289z"/>
        <path style="fill:#A9515E;" d="M400.017,351.751c7.552,1.12,11.335,6.022,15.88,15.831c4.546,9.807,4.189,23.398,3.817,26.419 c-0.186,1.497-3.956,5.492-8.295,7.185c-4.412,1.723-10.191,1.148-13.589,0.398c-3.399-0.749-7.199-16.221-8.34-21.504 C388.351,374.798,392.465,350.63,400.017,351.751z"/>
        <path style="fill:none;stroke:#93404A;stroke-width:1.5101;stroke-miterlimit:10;" d="M396.833,356.183 c0,0-6.04,5.661-6.797,12.08c-0.754,6.417-0.754,13.213,0.757,18.12c1.509,4.907,5.284,13.969,5.284,13.969"/>
        <path style="fill:none;stroke:#93404A;stroke-width:1.5101;stroke-miterlimit:10;" d="M346.246,360.334 c0,0-3.397,1.888-5.285,9.06c-1.888,7.173-5.663,19.631-5.285,24.538"/>
      </g>
    </g>
  </g>
</svg>