<svg width="800" height="800" viewBox="0 0 800 800" fill="none" xmlns="http://www.w3.org/2000/svg">
<g clip-path="url(#clip0_471_559)">
<path d="M771.428 800H428.572C412.791 800 400 787.209 400 771.428V428.572C400 412.792 412.791 400 428.572 400H771.43C787.209 400 800.002 412.791 800.002 428.572V771.43C800 787.209 787.209 800 771.428 800Z" fill="#62CFBE"/>
<path d="M614.278 442.858C567.157 442.858 522.938 463.728 492.958 500.117C462.98 536.497 451.022 584.225 460.153 631.055C472.13 692.505 521.428 741.93 582.827 754.044C593.269 756.106 603.878 757.152 614.355 757.152C646.627 757.152 677.669 747.397 704.127 728.938C716.644 720.205 725.013 707.12 727.688 692.092C730.363 677.064 727.025 661.894 718.291 649.375C707.624 634.07 690.094 624.925 671.411 624.925C659.674 624.925 648.372 628.483 638.727 635.214C631.578 640.199 623.085 642.836 614.178 642.836C611.13 642.836 608.017 642.528 604.925 641.922C588.63 638.705 575.516 625.547 572.324 609.184C569.678 595.606 572.735 583.017 581.163 572.786C589.355 562.847 601.427 557.144 614.28 557.144C614.891 557.144 615.497 557.156 616.105 557.181C622.475 581.78 644.864 600 671.428 600C702.938 600 728.571 574.366 728.571 542.858V525.775C728.571 500.514 715.222 476.999 693.735 464.405C669.708 450.311 642.228 442.858 614.278 442.858Z" fill="#4FAA9C"/>
<path d="M571.428 400H228.572C212.791 400 200 387.209 200 371.428V28.5719C200 12.7906 212.791 0 228.572 0H571.43C587.209 0 600 12.7906 600 28.5719V371.43C600 387.209 587.209 400 571.428 400Z" fill="#F94D53"/>
<path d="M371.428 800H28.5719C12.7906 800 0 787.209 0 771.428V428.572C0 412.791 12.7906 400 28.5719 400H371.43C387.209 400 400.002 412.791 400.002 428.572V771.43C400 787.209 387.209 800 371.428 800Z" fill="#FFC672"/>
<path d="M400.001 57.1357C369.562 57.1357 342.583 75.3998 331.273 103.664L261.23 278.78C255.563 292.95 255.752 308.479 261.763 322.508C267.776 336.54 278.896 347.39 293.071 353.056C299.837 355.772 306.985 357.156 314.283 357.156C337.782 357.156 358.608 343.051 367.343 321.222L370.118 314.284H429.888L432.663 321.22C441.398 343.047 462.224 357.148 485.726 357.148C493.024 357.148 500.166 355.769 506.958 353.047C521.112 347.387 532.23 336.539 538.243 322.508C544.254 308.479 544.443 292.948 538.776 278.778L468.73 103.654C457.412 75.3904 430.435 57.1357 400.001 57.1357Z" fill="#D24146"/>
<path d="M214.287 442.858H171.429C124.166 442.858 85.7148 481.31 85.7148 528.572V585.714V700C85.7148 731.509 111.349 757.142 142.857 757.142H228.571C291.588 757.142 342.857 705.875 342.857 642.856C342.857 613.694 331.515 585.728 311.774 564.699C313.445 557.511 314.285 550.213 314.285 542.856C314.287 487.717 269.426 442.858 214.287 442.858Z" fill="#FFAF4B"/>
<path d="M512.241 289.391L442.2 114.266C435.252 96.9174 418.686 85.708 399.998 85.708C381.311 85.708 364.745 96.9174 357.797 114.28L287.756 289.392C281.897 304.041 289.019 320.671 303.673 326.53C318.308 332.403 334.945 325.275 340.811 310.613L350.772 285.714H449.23L459.189 310.61C463.661 321.785 474.389 328.58 485.723 328.58C489.253 328.58 492.845 327.925 496.326 326.53C510.978 320.667 518.102 304.039 512.241 289.391ZM373.627 228.572L400 162.639L426.373 228.572H373.627Z" fill="#FFC855"/>
<path d="M278.59 573.392C283.026 564.097 285.713 553.822 285.713 542.856C285.713 503.472 253.668 471.428 214.285 471.428H171.427C139.918 471.428 114.285 497.063 114.285 528.57V585.713V700C114.285 715.778 127.077 728.572 142.857 728.572H228.571C275.837 728.572 314.285 690.124 314.285 642.858C314.285 614.27 300.165 588.974 278.59 573.392ZM171.427 528.572H214.285C222.16 528.572 228.571 534.983 228.571 542.858C228.571 550.733 222.16 557.144 214.285 557.144H171.427V528.572ZM228.571 671.428H171.429V614.286H214.287H228.573C244.33 614.286 257.145 627.1 257.145 642.858C257.145 658.616 244.327 671.428 228.571 671.428Z" fill="#E15050"/>
<path d="M614.355 728.578C605.747 728.578 597.05 727.727 588.357 726.011C538.224 716.12 497.977 675.759 488.196 625.586C480.705 587.158 490.483 548.047 515.01 518.283C539.543 488.505 575.724 471.43 614.277 471.43C637.15 471.43 659.63 477.527 679.288 489.056C692.06 496.541 699.999 510.617 699.999 525.777V542.859C699.999 558.638 687.207 571.431 671.427 571.431C655.649 571.431 642.855 558.639 642.855 542.859V534.523C633.891 530.611 624.153 528.573 614.277 528.573C592.855 528.573 572.752 538.066 559.107 554.62C545.274 571.409 540.008 592.734 544.277 614.658C549.669 642.288 571.824 664.511 599.418 669.959C619.247 673.852 639.003 669.847 655.075 658.645C668.028 649.605 685.838 652.786 694.855 665.725C703.889 678.672 700.714 696.48 687.775 705.505C666.002 720.697 640.603 728.578 614.355 728.578Z" fill="#FFC855"/>
<path d="M487.752 310.61L481.387 294.694C479.216 289.271 473.963 285.714 468.123 285.714H449.23L459.19 310.61C463.662 321.785 474.39 328.58 485.724 328.58C489.254 328.58 492.846 327.925 496.327 326.53C497.673 325.992 498.882 325.275 500.095 324.564C494.727 321.472 490.231 316.808 487.752 310.61Z" fill="#FFAF4B"/>
<path d="M418.892 162.639H400L426.373 228.572H440.753C447.545 228.572 452.192 221.711 449.669 215.402L432.156 171.619C429.987 166.197 424.734 162.639 418.892 162.639Z" fill="#FFAF4B"/>
<path d="M316.324 289.391L386.365 114.278C391.466 101.528 401.777 92.1486 414.285 88.0361C409.76 86.5486 404.968 85.708 400.002 85.708C381.315 85.708 364.749 96.9174 357.801 114.28L287.76 289.391C281.901 304.039 289.023 320.669 303.677 326.528C312.149 329.928 321.23 328.863 328.566 324.611C316.49 317.613 310.988 302.727 316.324 289.391Z" fill="#FFAF4B"/>
<path d="M228.571 542.858C228.571 550.733 222.16 557.144 214.285 557.144H242.857C250.732 557.144 257.143 550.733 257.143 542.858C257.143 534.983 250.732 528.572 242.857 528.572H214.285C222.16 528.572 228.571 534.983 228.571 542.858Z" fill="#D24146"/>
<path d="M142.857 700V585.714V528.572C142.857 497.063 168.491 471.43 199.999 471.43H171.427C139.918 471.43 114.285 497.064 114.285 528.572V585.714V700C114.285 715.778 127.077 728.572 142.857 728.572H171.429C155.649 728.572 142.857 715.778 142.857 700Z" fill="#D24146"/>
<path d="M228.57 671.428H257.142C272.9 671.428 285.714 658.614 285.714 642.856C285.714 627.098 272.9 614.284 257.142 614.284H242.856H228.57C244.328 614.284 257.142 627.098 257.142 642.856C257.142 658.614 244.327 671.428 228.57 671.428Z" fill="#D24146"/>
<path d="M614.355 728.578C605.747 728.578 597.05 727.727 588.357 726.011C538.224 716.12 497.977 675.759 488.196 625.586C480.705 587.158 490.483 548.047 515.01 518.283C539.543 488.505 575.724 471.43 614.277 471.43C637.15 471.43 659.63 477.527 679.288 489.056C692.06 496.541 699.999 510.617 699.999 525.777V542.859C699.999 558.638 687.207 571.431 671.427 571.431C655.649 571.431 642.855 558.639 642.855 542.859V534.523C633.891 530.611 624.153 528.573 614.277 528.573C592.855 528.573 572.752 538.066 559.107 554.62C545.274 571.409 540.008 592.734 544.277 614.658C549.669 642.288 571.824 664.511 599.418 669.959C619.247 673.852 639.003 669.847 655.075 658.645C668.028 649.605 685.838 652.786 694.855 665.725C703.889 678.672 700.714 696.48 687.775 705.505C666.002 720.697 640.603 728.578 614.355 728.578Z" fill="#FFC855"/>
<path d="M614.279 528.572C628.571 528.572 638.301 532.533 642.857 534.522V540.819C642.857 554.764 651.932 567.883 665.567 570.803C673.051 572.405 679.959 570.817 685.714 567.469C677.209 562.52 671.426 553.408 671.426 542.859C671.426 534.97 665.029 528.573 657.14 528.573L614.279 528.572Z" fill="#FFAF4B"/>
<path d="M616.927 726.011C566.794 716.12 526.547 675.759 516.766 625.586C509.276 587.158 519.054 548.047 543.58 518.283C564.902 492.403 595.03 476.15 627.857 472.331C623.352 471.853 618.835 471.43 614.279 471.43C575.726 471.43 539.543 488.506 515.011 518.283C490.486 548.047 480.707 587.158 488.197 625.586C497.977 675.761 538.226 716.12 588.358 726.011C597.049 727.727 605.747 728.578 614.357 728.578C618.802 728.578 623.172 728.031 627.555 727.583C624.015 727.17 620.471 726.711 616.927 726.011Z" fill="#FFAF4B"/>
</g>
<defs>
<clipPath id="clip0_471_559">
<rect width="800" height="800" fill="white"/>
</clipPath>
</defs>
</svg>
